# Blender v2.78 (sub 0) OBJ File: 'bush-corner.blend'
# www.blender.org
o BezierCurve
v -1.208783 0.000000 -0.136888
v -0.897638 0.000000 -0.137888
v -0.644437 0.000000 -0.114344
v -0.443274 0.000000 -0.066368
v -0.288244 0.000000 0.005931
v -0.173440 0.000000 0.102440
v -0.092955 0.000000 0.223050
v -0.040883 0.000000 0.367648
v -0.011318 0.000000 0.536125
v 0.001647 0.000000 0.728369
v 0.003917 0.000000 0.944270
v 0.001399 0.000000 1.183715
v 0.000000 0.000000 1.446595
l 1 2
l 2 3
l 3 4
l 4 5
l 5 6
l 6 7
l 7 8
l 8 9
l 9 10
l 10 11
l 11 12
l 12 13
o Icosphere.001_Icosphere.002
v -0.337252 -0.606215 0.103480
v 0.378747 -0.233271 2.060650
v -0.336726 -0.358270 3.209400
v -0.683348 -0.075586 0.614638
v -3.590374 -0.338379 0.212488
v -2.441206 -0.233271 -0.514711
v 0.130793 0.460607 3.209400
v -0.576959 0.370179 2.064579
v -2.404052 0.370179 0.440281
v -3.609510 0.475287 -0.279348
v 0.003817 0.370177 -0.378760
v -0.337252 0.743123 0.103480
v -0.261959 -0.470008 1.847939
v 0.076195 -0.530452 1.014005
v 0.119232 -0.389458 3.209400
v -0.012877 -0.286244 -0.355156
v -1.503313 -0.505456 -0.320868
v -0.537726 -0.505454 0.386933
v -0.524698 -0.211384 2.196968
v -2.308013 -0.505456 0.069631
v -2.294523 -0.286244 0.416554
v -3.609042 -0.409806 -0.267320
v 0.534088 0.068454 1.158523
v -1.516815 0.068454 -0.667792
v 0.397095 0.069875 3.209400
v -0.616478 0.236097 1.072958
v -0.608233 0.069875 3.209400
v -3.579595 0.068454 0.489556
v -1.333702 0.267297 0.529391
v -3.620289 0.068454 -0.556416
v 0.355946 0.423152 1.950309
v -0.330370 0.529207 3.209400
v -3.590842 0.546714 0.200459
v -2.329859 0.423152 -0.491694
v 0.008764 0.642364 1.951730
v -0.136777 0.642362 -0.179973
v -0.374840 0.642364 1.154552
v -1.347413 0.642364 0.350204
v -2.316355 0.642364 -0.144772
vt 0.2291 0.5416
vt 0.6694 0.5416
vt 0.6694 0.9819
vt 0.2291 0.5416
vt 0.6694 0.9819
vt 0.6694 0.5416
vt 0.6694 0.9819
vt 0.6694 0.5416
vt 0.6694 0.9819
vt 0.6694 0.5416
vt 0.6694 0.9819
vt 0.6694 0.5416
vt 0.6694 0.9819
vt 0.2291 0.5416
vt 0.6694 0.5416
vt 0.6694 0.9819
vt 0.2291 0.5416
vt 0.6694 0.5416
vt 0.6694 0.9819
vt 0.2291 0.5416
vt 0.6694 0.5416
vt 0.6694 0.9819
vt 0.6694 0.5416
vt 0.6694 0.9819
vt 0.1983 0.5381
vt 0.6455 0.5381
vt 0.6455 0.9853
vt 0.6694 0.5416
vt 0.6694 0.9819
vt 0.2284 0.0995
vt 0.5998 0.0995
vt 0.5998 0.4709
vt 0.2284 0.0995
vt 0.5998 0.0995
vt 0.5998 0.4709
vt 0.2284 0.0995
vt 0.5998 0.0995
vt 0.5998 0.4709
vt 0.2284 0.0995
vt 0.5998 0.0995
vt 0.5998 0.4709
vt 0.2284 0.0995
vt 0.5998 0.0995
vt 0.5998 0.4709
vt 0.2284 0.0995
vt 0.5998 0.0995
vt 0.2284 0.0995
vt 0.5998 0.0995
vt 0.5998 0.4709
vt 0.2284 0.0995
vt 0.5998 0.0995
vt 0.2284 0.0995
vt 0.5998 0.0995
vt 0.2284 0.0995
vt 0.5998 0.0995
vt 0.2284 0.0995
vt 0.5998 0.0995
vt 0.2284 0.0995
vt 0.5998 0.0995
vt 0.2284 0.0995
vt 0.5998 0.0995
vt 0.2284 0.0995
vt 0.5998 0.4709
vt 0.5998 0.0995
vt 0.5998 0.4709
vt 0.2284 0.0995
vt 0.2284 0.0995
vt 0.5998 0.4709
vt 0.1857 0.4982
vt 0.6581 0.4982
vt 0.6581 0.9706
vt 0.1602 0.5117
vt 0.6211 0.5117
vt 0.6211 0.9726
vt 0.2284 0.0995
vt 0.5998 0.4709
vt 0.2284 0.0995
vt 0.5998 0.4709
vt 0.5998 0.0995
vt 0.5998 0.4709
vt 0.2284 0.0995
vt 0.5998 0.0995
vt 0.5998 0.4709
vt 0.1415 0.5126
vt 0.6242 0.5126
vt 0.6242 0.9953
vt 0.1737 0.5136
vt 0.6544 0.5136
vt 0.6544 0.9943
vt 0.2284 0.0995
vt 0.5998 0.0995
vt 0.2291 0.5416
vt 0.6694 0.9819
vt 0.2291 0.5416
vt 0.6694 0.5416
vt 0.5000 1.0000
vt 0.9330 0.7500
vt 0.9330 0.2500
vt 0.5000 0.0000
vt 0.0670 0.2500
vt 0.0670 0.7500
vt 0.2291 0.5416
vt 0.6694 0.5416
vt 0.2291 0.5416
vt 0.6694 0.5416
vt 0.2291 0.5416
vt 0.6694 0.9819
vt 0.6694 0.9819
vt 0.2291 0.5416
vt 0.6694 0.5416
vt 0.6694 0.9819
vt 0.6694 0.9819
vt 0.2291 0.5416
vt 0.6694 0.5416
vt 0.6694 0.9819
vt 0.6694 0.9819
vt 0.2291 0.5416
vt 0.6694 0.5416
vt 0.6694 0.5416
vt 0.6694 0.9819
vt 0.6694 0.9819
vt 0.2291 0.5416
vt 0.5000 1.0000
vt 0.9330 0.7500
vt 0.9330 0.2500
vt 0.5000 0.0000
vt 0.0670 0.2500
vt 0.0670 0.7500
vt 0.6694 0.5416
vt 0.6694 0.9819
vt 0.5998 0.4709
vt 0.5998 0.4709
vt 0.2284 0.0995
vn 0.0124 -0.9969 0.0773
vn 0.8917 -0.4321 -0.1351
vn -0.3454 -0.9343 0.0879
vn -0.0538 -0.9523 0.3004
vn -0.0491 -0.9937 -0.1011
vn 0.7255 -0.6805 -0.1027
vn -0.9928 0.0592 0.1046
vn -0.1072 -0.5577 0.8231
vn -0.1021 -0.5164 -0.8503
vn 0.9520 -0.2994 0.0638
vn -0.4454 -0.7088 0.5470
vn -0.0500 -0.3258 -0.9441
vn 0.5328 0.8433 0.0702
vn -0.7065 0.7057 0.0541
vn -0.1123 0.9835 -0.1420
vn 0.0522 0.6064 -0.7934
vn -0.0055 0.9410 -0.3384
vn -0.0086 0.8455 -0.5339
vn -0.0538 0.8451 -0.5319
vn -0.0668 0.9892 0.1307
vn -0.0488 0.9942 0.0955
vn -0.0789 0.5755 0.8140
vn -0.0764 0.9928 0.0924
vn -0.1816 0.9795 0.0874
vn -0.1188 0.9913 0.0572
vn 0.1459 0.9810 0.1276
vn 0.4165 0.9087 -0.0284
vn 0.5334 0.8451 -0.0364
vn 0.8351 0.5324 -0.1384
vn 0.0529 0.5387 -0.8408
vn -0.0495 0.3508 -0.9351
vn -0.1132 0.5613 -0.8198
vn -0.0960 0.5133 0.8528
vn 0.1943 -0.0402 -0.9801
vn 0.9425 -0.0359 -0.3322
vn -0.8503 0.5144 0.1117
vn 0.8193 0.5584 0.1299
vn 0.9409 0.3328 0.0626
vn 0.7429 0.6572 -0.1273
vn -0.0463 0.3340 0.9414
vn 0.0004 -0.2003 0.9797
vn -0.1236 0.0123 0.9923
vn -0.9859 0.1666 0.0168
vn -0.9716 -0.2360 -0.0146
vn -0.8419 -0.5339 0.0789
vn -0.9992 0.0000 0.0389
vn 0.8492 -0.5137 0.1220
vn 0.0426 -0.5528 -0.8322
vn -0.0496 -0.6872 -0.7248
vn -0.0476 -0.9940 -0.0982
vn -0.1112 -0.9823 0.1506
vn -0.0503 -0.8434 0.5349
vn -0.0958 -0.8398 0.5344
vn -0.0451 -0.4795 0.8764
vn -0.9345 -0.3503 0.0636
vn -0.6004 -0.7887 0.1325
vn -0.6864 -0.7269 0.0220
vn 0.0480 -0.4645 -0.8843
vn -0.0680 -0.9946 0.0779
vn -0.0194 -0.9977 0.0645
vn 0.6315 -0.7745 0.0374
vn 0.0000 0.0000 1.0000
vn 0.5487 -0.8161 -0.1813
vn 0.1133 -0.8507 -0.5133
vn -0.8558 0.5162 -0.0357
vn -0.6219 0.2189 0.7519
vn -0.5584 0.3409 0.7563
vn -0.0338 0.4298 0.9023
s off
f 14/1/1 27/2/1 26/3/1
f 15/4/2 27/2/2 29/5/2
f 14/1/3 26/6/3 31/7/3
f 14/1/4 31/8/4 33/9/4
f 14/1/5 33/10/5 30/11/5
f 15/4/6 29/12/6 36/13/6
f 17/14/7 32/15/7 39/16/7
f 18/17/8 34/18/8 41/19/8
f 19/20/9 35/21/9 43/22/9
f 15/4/10 36/23/10 38/24/10
f 17/25/11 39/26/11 42/27/11
f 19/20/12 43/28/12 37/29/12
f 20/30/13 44/31/13 48/32/13
f 21/33/14 45/34/14 50/35/14
f 23/36/15 46/37/15 52/38/15
f 24/39/16 47/40/16 49/41/16
f 49/42/17 52/43/17 25/44/17
f 49/42/18 47/40/18 52/38/18
f 47/45/19 23/46/19 52/38/19
f 52/47/20 51/48/20 25/44/20
f 52/47/21 46/37/21 51/49/21
f 46/50/22 22/51/22 51/49/22
f 51/52/23 50/53/23 25/44/23
f 50/54/24 48/55/24 25/44/24
f 50/54/25 45/34/25 48/32/25
f 45/56/26 20/57/26 48/32/26
f 48/58/27 49/59/27 25/44/27
f 48/58/28 44/31/28 49/41/28
f 44/60/29 24/61/29 49/41/29
f 37/62/30 47/40/30 24/63/30
f 37/62/31 43/64/31 47/65/31
f 43/66/32 23/46/32 47/65/32
f 41/67/33 22/51/33 46/68/33
f 24/69/34 29/70/34 37/71/34
f 36/72/35 29/73/35 24/74/35
f 40/75/36 45/34/36 21/76/36
f 38/77/37 44/31/37 20/78/37
f 38/77/38 36/79/38 44/80/38
f 36/81/39 24/61/39 44/80/39
f 41/67/40 42/82/40 22/83/40
f 41/84/41 34/85/41 42/86/41
f 34/87/42 17/88/42 42/89/42
f 39/90/43 40/91/43 21/76/43
f 39/92/44 32/15/44 40/93/44
f 32/94/45 16/95/45 40/93/45
f 18/96/46 41/97/46 46/98/46 23/99/46 43/100/46 35/101/46
f 28/102/47 15/103/47 38/24/47
f 29/104/48 19/105/48 37/29/48
f 30/106/49 35/21/49 19/107/49
f 30/106/50 33/10/50 35/108/50
f 33/109/51 18/110/51 35/108/51
f 33/109/52 34/18/52 18/111/52
f 33/109/53 31/8/53 34/112/53
f 31/113/54 17/114/54 34/112/54
f 31/113/55 32/15/55 17/115/55
f 31/113/56 26/6/56 32/116/56
f 26/117/57 16/95/57 32/116/57
f 29/104/58 30/118/58 19/107/58
f 26/117/59 28/119/59 16/120/59
f 26/117/60 27/2/60 28/121/60
f 27/122/61 15/103/61 28/121/61
f 16/123/62 28/124/62 38/125/62 20/126/62 45/127/62 40/128/62
f 27/122/63 14/129/63 29/5/63
f 30/106/64 29/12/64 14/130/64
f 21/33/65 50/53/65 39/131/65
f 50/54/66 51/48/66 39/131/66
f 39/90/67 51/48/67 42/132/67
f 22/133/68 42/82/68 51/49/68
